# xmcd
#
# Track frame offsets: 
#        150
#        16639
#        36265
#        49215
#        69936
#        87177
#        105205
#        120194
#        139300
#        155668
#        166207
#        183590
#        199769
#        218057
#        238554
#        249530
#
# Disc length: 3547 seconds
#
# Revision: 0
# Processed by: cddbd v1.5.2PL0 Copyright (c) Steve Scherf et al.
# Submitted via: ExactAudioCopy v1.0b2
#
DISCID=cc0dd910
DTITLE=Various Artist - BIG COLLABO
DYEAR=2011
DGENRE=Hip-Hop
TTITLE0=SLik d x PUNPEE - Motion
TTITLE1=環ROY, 日之内エミ x Cook Classics - FLOW
TTITLE2=DAG FORCE x Cook Classics - BET BET
TTITLE3=Paulie Rhyme x tofubeats - Put It Up Remix
TTITLE4=YAMANE, ELOQ x Jet Audio - yell O
TTITLE5=Has-Lo x Eccy - Never Lied To Me
TTITLE6=Johnny Polygon x YOUICHI - Untitled #317
TTITLE7=BRON-K x Loptimist - Guilty Luv
TTITLE8=S.L.A.C.K. x Statik Music - 俺の問題
TTITLE9=Cherry Brown x 6th Sense - Gotta Work Hard
TTITLE10=あるま x Alf Alpha - Newtral Maind
TTITLE11=Theo Martins x 熊井吾郎 - Sweetest Language Remix
TTITLE12=らっぷびと x Woody - 曖昧ノスタルジィ
TTITLE13=BRON-K x Loptimist - Guilty Luv (Kenichiro Nishihara Remix)
TTITLE14=Cherry Brown x 6th Sense - Gotta Work Hard (BLACC HOLE Remix)
TTITLE15=Roc C - Imagine That (PUNPEE Remix 2008)
EXTD=
EXTT0=
EXTT1=
EXTT2=
EXTT3=
EXTT4=
EXTT5=
EXTT6=
EXTT7=
EXTT8=
EXTT9=
EXTT10=
EXTT11=
EXTT12=
EXTT13=
EXTT14=
EXTT15=
PLAYORDER=
